<svg width="43" height="32" viewBox="0 0 43 32" fill="none" xmlns="http://www.w3.org/2000/svg">
<path d="M12.8758 13.2756C13.6738 14.0179 13.7305 15.2626 13.0032 16.0745L0.42427 30.1157C0.284475 30.2718 0 30.2077 0 29.9982V2.00184C0 1.72307 0.356864 1.63031 0.560976 1.82018L12.8758 13.2756ZM41.2859 0.296894C41.3877 0.202204 41.3465 0 41.2075 0H1.79397C1.65679 0 1.6155 0.202238 1.71595 0.295662L20.1389 17.4305C20.9066 18.1445 22.0953 18.1445 22.863 17.4305L41.2859 0.296894ZM22.0729 20.7678C21.9085 20.9241 21.705 21 21.501 21C21.2974 21 21.0935 20.9241 20.9309 20.7678L17.1878 17.2873C16.3684 16.5253 15.0832 16.5838 14.3364 17.4172L1.65847 31.5655C1.51896 31.7211 1.58492 32 1.79397 32H41.2075C41.4194 32 41.4867 31.7184 41.3453 31.5605L28.6721 17.4165C27.9256 16.5834 26.6409 16.5245 25.8213 17.2858L22.0729 20.7678ZM30.1316 13.2756C29.3335 14.018 29.2767 15.2627 30.004 16.0746L42.5824 30.1159C42.7227 30.2724 43 30.2084 43 29.9982V2.00184C43 1.72438 42.6521 1.6304 42.4489 1.81936L30.1316 13.2756Z" fill="#9AA6B2"/>
</svg>
